<?xml version="1.0" encoding="utf-8" standalone="no"?>
<!DOCTYPE svg PUBLIC "-//W3C//DTD SVG 1.1//EN"
  "http://www.w3.org/Graphics/SVG/1.1/DTD/svg11.dtd">
<svg xmlns:xlink="http://www.w3.org/1999/xlink" width="576pt" height="576pt" viewBox="0 0 576 576" xmlns="http://www.w3.org/2000/svg" version="1.1">
 <metadata>
  <rdf:RDF xmlns:dc="http://purl.org/dc/elements/1.1/" xmlns:cc="http://creativecommons.org/ns#" xmlns:rdf="http://www.w3.org/1999/02/22-rdf-syntax-ns#">
   <cc:Work>
    <dc:type rdf:resource="http://purl.org/dc/dcmitype/StillImage"/>
    <dc:date>2023-06-12T14:16:02.171679</dc:date>
    <dc:format>image/svg+xml</dc:format>
    <dc:creator>
     <cc:Agent>
      <dc:title>Matplotlib v3.5.2, https://matplotlib.org/</dc:title>
     </cc:Agent>
    </dc:creator>
   </cc:Work>
  </rdf:RDF>
 </metadata>
 <defs>
  <style type="text/css">*{stroke-linejoin: round; stroke-linecap: butt}</style>
 </defs>
 <g id="figure_1">
  <g id="patch_1">
   <path d="M 0 576 
L 576 576 
L 576 0 
L 0 0 
L 0 576 
z
" style="fill: none"/>
  </g>
  <g id="axes_1">
   <g id="patch_2">
    <path d="M 72 460.8 
L 518.4 460.8 
L 518.4 69.12 
L 72 69.12 
z
" style="fill: #ffffff"/>
   </g>
   <g id="matplotlib.axis_1">
    <g id="xtick_1">
     <g id="line2d_1">
      <defs>
       <path id="md0f53043a3" d="M 0 0 
L 0 3.5 
" style="stroke: #000000; stroke-width: 0.8"/>
      </defs>
      <g>
       <use xlink:href="#md0f53043a3" x="92.290909" y="460.8" style="stroke: #000000; stroke-width: 0.8"/>
      </g>
     </g>
     <g id="text_1">
      <!-- 2018 -->
      <g transform="translate(69.210719 487.10544)rotate(-30)scale(0.1 -0.1)">
       <defs>
        <path id="DejaVuSans-32" d="M 1228 531 
L 3431 531 
L 3431 0 
L 469 0 
L 469 531 
Q 828 903 1448 1529 
Q 2069 2156 2228 2338 
Q 2531 2678 2651 2914 
Q 2772 3150 2772 3378 
Q 2772 3750 2511 3984 
Q 2250 4219 1831 4219 
Q 1534 4219 1204 4116 
Q 875 4013 500 3803 
L 500 4441 
Q 881 4594 1212 4672 
Q 1544 4750 1819 4750 
Q 2544 4750 2975 4387 
Q 3406 4025 3406 3419 
Q 3406 3131 3298 2873 
Q 3191 2616 2906 2266 
Q 2828 2175 2409 1742 
Q 1991 1309 1228 531 
z
" transform="scale(0.015625)"/>
        <path id="DejaVuSans-30" d="M 2034 4250 
Q 1547 4250 1301 3770 
Q 1056 3291 1056 2328 
Q 1056 1369 1301 889 
Q 1547 409 2034 409 
Q 2525 409 2770 889 
Q 3016 1369 3016 2328 
Q 3016 3291 2770 3770 
Q 2525 4250 2034 4250 
z
M 2034 4750 
Q 2819 4750 3233 4129 
Q 3647 3509 3647 2328 
Q 3647 1150 3233 529 
Q 2819 -91 2034 -91 
Q 1250 -91 836 529 
Q 422 1150 422 2328 
Q 422 3509 836 4129 
Q 1250 4750 2034 4750 
z
" transform="scale(0.015625)"/>
        <path id="DejaVuSans-31" d="M 794 531 
L 1825 531 
L 1825 4091 
L 703 3866 
L 703 4441 
L 1819 4666 
L 2450 4666 
L 2450 531 
L 3481 531 
L 3481 0 
L 794 0 
L 794 531 
z
" transform="scale(0.015625)"/>
        <path id="DejaVuSans-38" d="M 2034 2216 
Q 1584 2216 1326 1975 
Q 1069 1734 1069 1313 
Q 1069 891 1326 650 
Q 1584 409 2034 409 
Q 2484 409 2743 651 
Q 3003 894 3003 1313 
Q 3003 1734 2745 1975 
Q 2488 2216 2034 2216 
z
M 1403 2484 
Q 997 2584 770 2862 
Q 544 3141 544 3541 
Q 544 4100 942 4425 
Q 1341 4750 2034 4750 
Q 2731 4750 3128 4425 
Q 3525 4100 3525 3541 
Q 3525 3141 3298 2862 
Q 3072 2584 2669 2484 
Q 3125 2378 3379 2068 
Q 3634 1759 3634 1313 
Q 3634 634 3220 271 
Q 2806 -91 2034 -91 
Q 1263 -91 848 271 
Q 434 634 434 1313 
Q 434 1759 690 2068 
Q 947 2378 1403 2484 
z
M 1172 3481 
Q 1172 3119 1398 2916 
Q 1625 2713 2034 2713 
Q 2441 2713 2670 2916 
Q 2900 3119 2900 3481 
Q 2900 3844 2670 4047 
Q 2441 4250 2034 4250 
Q 1625 4250 1398 4047 
Q 1172 3844 1172 3481 
z
" transform="scale(0.015625)"/>
       </defs>
       <use xlink:href="#DejaVuSans-32"/>
       <use xlink:href="#DejaVuSans-30" x="63.623047"/>
       <use xlink:href="#DejaVuSans-31" x="127.246094"/>
       <use xlink:href="#DejaVuSans-38" x="190.869141"/>
      </g>
     </g>
    </g>
    <g id="xtick_2">
     <g id="line2d_2">
      <g>
       <use xlink:href="#md0f53043a3" x="168.409515" y="460.8" style="stroke: #000000; stroke-width: 0.8"/>
      </g>
     </g>
     <g id="text_2">
      <!-- 2019 -->
      <g transform="translate(145.329325 487.10544)rotate(-30)scale(0.1 -0.1)">
       <defs>
        <path id="DejaVuSans-39" d="M 703 97 
L 703 672 
Q 941 559 1184 500 
Q 1428 441 1663 441 
Q 2288 441 2617 861 
Q 2947 1281 2994 2138 
Q 2813 1869 2534 1725 
Q 2256 1581 1919 1581 
Q 1219 1581 811 2004 
Q 403 2428 403 3163 
Q 403 3881 828 4315 
Q 1253 4750 1959 4750 
Q 2769 4750 3195 4129 
Q 3622 3509 3622 2328 
Q 3622 1225 3098 567 
Q 2575 -91 1691 -91 
Q 1453 -91 1209 -44 
Q 966 3 703 97 
z
M 1959 2075 
Q 2384 2075 2632 2365 
Q 2881 2656 2881 3163 
Q 2881 3666 2632 3958 
Q 2384 4250 1959 4250 
Q 1534 4250 1286 3958 
Q 1038 3666 1038 3163 
Q 1038 2656 1286 2365 
Q 1534 2075 1959 2075 
z
" transform="scale(0.015625)"/>
       </defs>
       <use xlink:href="#DejaVuSans-32"/>
       <use xlink:href="#DejaVuSans-30" x="63.623047"/>
       <use xlink:href="#DejaVuSans-31" x="127.246094"/>
       <use xlink:href="#DejaVuSans-39" x="190.869141"/>
      </g>
     </g>
    </g>
    <g id="xtick_3">
     <g id="line2d_3">
      <g>
       <use xlink:href="#md0f53043a3" x="244.528122" y="460.8" style="stroke: #000000; stroke-width: 0.8"/>
      </g>
     </g>
     <g id="text_3">
      <!-- 2020 -->
      <g transform="translate(221.447932 487.10544)rotate(-30)scale(0.1 -0.1)">
       <use xlink:href="#DejaVuSans-32"/>
       <use xlink:href="#DejaVuSans-30" x="63.623047"/>
       <use xlink:href="#DejaVuSans-32" x="127.246094"/>
       <use xlink:href="#DejaVuSans-30" x="190.869141"/>
      </g>
     </g>
    </g>
    <g id="xtick_4">
     <g id="line2d_4">
      <g>
       <use xlink:href="#md0f53043a3" x="320.855272" y="460.8" style="stroke: #000000; stroke-width: 0.8"/>
      </g>
     </g>
     <g id="text_4">
      <!-- 2021 -->
      <g transform="translate(297.775082 487.10544)rotate(-30)scale(0.1 -0.1)">
       <use xlink:href="#DejaVuSans-32"/>
       <use xlink:href="#DejaVuSans-30" x="63.623047"/>
       <use xlink:href="#DejaVuSans-32" x="127.246094"/>
       <use xlink:href="#DejaVuSans-31" x="190.869141"/>
      </g>
     </g>
    </g>
    <g id="xtick_5">
     <g id="line2d_5">
      <g>
       <use xlink:href="#md0f53043a3" x="396.973879" y="460.8" style="stroke: #000000; stroke-width: 0.8"/>
      </g>
     </g>
     <g id="text_5">
      <!-- 2022 -->
      <g transform="translate(373.893688 487.10544)rotate(-30)scale(0.1 -0.1)">
       <use xlink:href="#DejaVuSans-32"/>
       <use xlink:href="#DejaVuSans-30" x="63.623047"/>
       <use xlink:href="#DejaVuSans-32" x="127.246094"/>
       <use xlink:href="#DejaVuSans-32" x="190.869141"/>
      </g>
     </g>
    </g>
    <g id="xtick_6">
     <g id="line2d_6">
      <g>
       <use xlink:href="#md0f53043a3" x="473.092485" y="460.8" style="stroke: #000000; stroke-width: 0.8"/>
      </g>
     </g>
     <g id="text_6">
      <!-- 2023 -->
      <g transform="translate(450.012295 487.10544)rotate(-30)scale(0.1 -0.1)">
       <defs>
        <path id="DejaVuSans-33" d="M 2597 2516 
Q 3050 2419 3304 2112 
Q 3559 1806 3559 1356 
Q 3559 666 3084 287 
Q 2609 -91 1734 -91 
Q 1441 -91 1130 -33 
Q 819 25 488 141 
L 488 750 
Q 750 597 1062 519 
Q 1375 441 1716 441 
Q 2309 441 2620 675 
Q 2931 909 2931 1356 
Q 2931 1769 2642 2001 
Q 2353 2234 1838 2234 
L 1294 2234 
L 1294 2753 
L 1863 2753 
Q 2328 2753 2575 2939 
Q 2822 3125 2822 3475 
Q 2822 3834 2567 4026 
Q 2313 4219 1838 4219 
Q 1578 4219 1281 4162 
Q 984 4106 628 3988 
L 628 4550 
Q 988 4650 1302 4700 
Q 1616 4750 1894 4750 
Q 2613 4750 3031 4423 
Q 3450 4097 3450 3541 
Q 3450 3153 3228 2886 
Q 3006 2619 2597 2516 
z
" transform="scale(0.015625)"/>
       </defs>
       <use xlink:href="#DejaVuSans-32"/>
       <use xlink:href="#DejaVuSans-30" x="63.623047"/>
       <use xlink:href="#DejaVuSans-32" x="127.246094"/>
       <use xlink:href="#DejaVuSans-33" x="190.869141"/>
      </g>
     </g>
    </g>
   </g>
   <g id="matplotlib.axis_2">
    <g id="ytick_1">
     <g id="line2d_7">
      <defs>
       <path id="m968288e8a5" d="M 0 0 
L -3.5 0 
" style="stroke: #000000; stroke-width: 0.8"/>
      </defs>
      <g>
       <use xlink:href="#m968288e8a5" x="72" y="455.78783" style="stroke: #000000; stroke-width: 0.8"/>
      </g>
     </g>
     <g id="text_7">
      <!-- 0.000 -->
      <g transform="translate(36.371875 459.587049)scale(0.1 -0.1)">
       <defs>
        <path id="DejaVuSans-2e" d="M 684 794 
L 1344 794 
L 1344 0 
L 684 0 
L 684 794 
z
" transform="scale(0.015625)"/>
       </defs>
       <use xlink:href="#DejaVuSans-30"/>
       <use xlink:href="#DejaVuSans-2e" x="63.623047"/>
       <use xlink:href="#DejaVuSans-30" x="95.410156"/>
       <use xlink:href="#DejaVuSans-30" x="159.033203"/>
       <use xlink:href="#DejaVuSans-30" x="222.65625"/>
      </g>
     </g>
    </g>
    <g id="ytick_2">
     <g id="line2d_8">
      <g>
       <use xlink:href="#m968288e8a5" x="72" y="426.782238" style="stroke: #000000; stroke-width: 0.8"/>
      </g>
     </g>
     <g id="text_8">
      <!-- 2.000 -->
      <g transform="translate(36.371875 430.581456)scale(0.1 -0.1)">
       <use xlink:href="#DejaVuSans-32"/>
       <use xlink:href="#DejaVuSans-2e" x="63.623047"/>
       <use xlink:href="#DejaVuSans-30" x="95.410156"/>
       <use xlink:href="#DejaVuSans-30" x="159.033203"/>
       <use xlink:href="#DejaVuSans-30" x="222.65625"/>
      </g>
     </g>
    </g>
    <g id="ytick_3">
     <g id="line2d_9">
      <g>
       <use xlink:href="#m968288e8a5" x="72" y="397.776645" style="stroke: #000000; stroke-width: 0.8"/>
      </g>
     </g>
     <g id="text_9">
      <!-- 4.000 -->
      <g transform="translate(36.371875 401.575864)scale(0.1 -0.1)">
       <defs>
        <path id="DejaVuSans-34" d="M 2419 4116 
L 825 1625 
L 2419 1625 
L 2419 4116 
z
M 2253 4666 
L 3047 4666 
L 3047 1625 
L 3713 1625 
L 3713 1100 
L 3047 1100 
L 3047 0 
L 2419 0 
L 2419 1100 
L 313 1100 
L 313 1709 
L 2253 4666 
z
" transform="scale(0.015625)"/>
       </defs>
       <use xlink:href="#DejaVuSans-34"/>
       <use xlink:href="#DejaVuSans-2e" x="63.623047"/>
       <use xlink:href="#DejaVuSans-30" x="95.410156"/>
       <use xlink:href="#DejaVuSans-30" x="159.033203"/>
       <use xlink:href="#DejaVuSans-30" x="222.65625"/>
      </g>
     </g>
    </g>
    <g id="ytick_4">
     <g id="line2d_10">
      <g>
       <use xlink:href="#m968288e8a5" x="72" y="368.771053" style="stroke: #000000; stroke-width: 0.8"/>
      </g>
     </g>
     <g id="text_10">
      <!-- 6.000 -->
      <g transform="translate(36.371875 372.570272)scale(0.1 -0.1)">
       <defs>
        <path id="DejaVuSans-36" d="M 2113 2584 
Q 1688 2584 1439 2293 
Q 1191 2003 1191 1497 
Q 1191 994 1439 701 
Q 1688 409 2113 409 
Q 2538 409 2786 701 
Q 3034 994 3034 1497 
Q 3034 2003 2786 2293 
Q 2538 2584 2113 2584 
z
M 3366 4563 
L 3366 3988 
Q 3128 4100 2886 4159 
Q 2644 4219 2406 4219 
Q 1781 4219 1451 3797 
Q 1122 3375 1075 2522 
Q 1259 2794 1537 2939 
Q 1816 3084 2150 3084 
Q 2853 3084 3261 2657 
Q 3669 2231 3669 1497 
Q 3669 778 3244 343 
Q 2819 -91 2113 -91 
Q 1303 -91 875 529 
Q 447 1150 447 2328 
Q 447 3434 972 4092 
Q 1497 4750 2381 4750 
Q 2619 4750 2861 4703 
Q 3103 4656 3366 4563 
z
" transform="scale(0.015625)"/>
       </defs>
       <use xlink:href="#DejaVuSans-36"/>
       <use xlink:href="#DejaVuSans-2e" x="63.623047"/>
       <use xlink:href="#DejaVuSans-30" x="95.410156"/>
       <use xlink:href="#DejaVuSans-30" x="159.033203"/>
       <use xlink:href="#DejaVuSans-30" x="222.65625"/>
      </g>
     </g>
    </g>
    <g id="ytick_5">
     <g id="line2d_11">
      <g>
       <use xlink:href="#m968288e8a5" x="72" y="339.76546" style="stroke: #000000; stroke-width: 0.8"/>
      </g>
     </g>
     <g id="text_11">
      <!-- 8.000 -->
      <g transform="translate(36.371875 343.564679)scale(0.1 -0.1)">
       <use xlink:href="#DejaVuSans-38"/>
       <use xlink:href="#DejaVuSans-2e" x="63.623047"/>
       <use xlink:href="#DejaVuSans-30" x="95.410156"/>
       <use xlink:href="#DejaVuSans-30" x="159.033203"/>
       <use xlink:href="#DejaVuSans-30" x="222.65625"/>
      </g>
     </g>
    </g>
    <g id="ytick_6">
     <g id="line2d_12">
      <g>
       <use xlink:href="#m968288e8a5" x="72" y="327.901275" style="stroke: #000000; stroke-width: 0.8"/>
      </g>
     </g>
     <g id="text_12">
      <!-- 8.818 -->
      <g transform="translate(36.371875 331.700494)scale(0.1 -0.1)">
       <use xlink:href="#DejaVuSans-38"/>
       <use xlink:href="#DejaVuSans-2e" x="63.623047"/>
       <use xlink:href="#DejaVuSans-38" x="95.410156"/>
       <use xlink:href="#DejaVuSans-31" x="159.033203"/>
       <use xlink:href="#DejaVuSans-38" x="222.65625"/>
      </g>
     </g>
    </g>
    <g id="text_13">
     <!-- Capacidade Instalada (MW) -->
     <g transform="translate(30.292187 333.682656)rotate(-90)scale(0.1 -0.1)">
      <defs>
       <path id="DejaVuSans-43" d="M 4122 4306 
L 4122 3641 
Q 3803 3938 3442 4084 
Q 3081 4231 2675 4231 
Q 1875 4231 1450 3742 
Q 1025 3253 1025 2328 
Q 1025 1406 1450 917 
Q 1875 428 2675 428 
Q 3081 428 3442 575 
Q 3803 722 4122 1019 
L 4122 359 
Q 3791 134 3420 21 
Q 3050 -91 2638 -91 
Q 1578 -91 968 557 
Q 359 1206 359 2328 
Q 359 3453 968 4101 
Q 1578 4750 2638 4750 
Q 3056 4750 3426 4639 
Q 3797 4528 4122 4306 
z
" transform="scale(0.015625)"/>
       <path id="DejaVuSans-61" d="M 2194 1759 
Q 1497 1759 1228 1600 
Q 959 1441 959 1056 
Q 959 750 1161 570 
Q 1363 391 1709 391 
Q 2188 391 2477 730 
Q 2766 1069 2766 1631 
L 2766 1759 
L 2194 1759 
z
M 3341 1997 
L 3341 0 
L 2766 0 
L 2766 531 
Q 2569 213 2275 61 
Q 1981 -91 1556 -91 
Q 1019 -91 701 211 
Q 384 513 384 1019 
Q 384 1609 779 1909 
Q 1175 2209 1959 2209 
L 2766 2209 
L 2766 2266 
Q 2766 2663 2505 2880 
Q 2244 3097 1772 3097 
Q 1472 3097 1187 3025 
Q 903 2953 641 2809 
L 641 3341 
Q 956 3463 1253 3523 
Q 1550 3584 1831 3584 
Q 2591 3584 2966 3190 
Q 3341 2797 3341 1997 
z
" transform="scale(0.015625)"/>
       <path id="DejaVuSans-70" d="M 1159 525 
L 1159 -1331 
L 581 -1331 
L 581 3500 
L 1159 3500 
L 1159 2969 
Q 1341 3281 1617 3432 
Q 1894 3584 2278 3584 
Q 2916 3584 3314 3078 
Q 3713 2572 3713 1747 
Q 3713 922 3314 415 
Q 2916 -91 2278 -91 
Q 1894 -91 1617 61 
Q 1341 213 1159 525 
z
M 3116 1747 
Q 3116 2381 2855 2742 
Q 2594 3103 2138 3103 
Q 1681 3103 1420 2742 
Q 1159 2381 1159 1747 
Q 1159 1113 1420 752 
Q 1681 391 2138 391 
Q 2594 391 2855 752 
Q 3116 1113 3116 1747 
z
" transform="scale(0.015625)"/>
       <path id="DejaVuSans-63" d="M 3122 3366 
L 3122 2828 
Q 2878 2963 2633 3030 
Q 2388 3097 2138 3097 
Q 1578 3097 1268 2742 
Q 959 2388 959 1747 
Q 959 1106 1268 751 
Q 1578 397 2138 397 
Q 2388 397 2633 464 
Q 2878 531 3122 666 
L 3122 134 
Q 2881 22 2623 -34 
Q 2366 -91 2075 -91 
Q 1284 -91 818 406 
Q 353 903 353 1747 
Q 353 2603 823 3093 
Q 1294 3584 2113 3584 
Q 2378 3584 2631 3529 
Q 2884 3475 3122 3366 
z
" transform="scale(0.015625)"/>
       <path id="DejaVuSans-69" d="M 603 3500 
L 1178 3500 
L 1178 0 
L 603 0 
L 603 3500 
z
M 603 4863 
L 1178 4863 
L 1178 4134 
L 603 4134 
L 603 4863 
z
" transform="scale(0.015625)"/>
       <path id="DejaVuSans-64" d="M 2906 2969 
L 2906 4863 
L 3481 4863 
L 3481 0 
L 2906 0 
L 2906 525 
Q 2725 213 2448 61 
Q 2172 -91 1784 -91 
Q 1150 -91 751 415 
Q 353 922 353 1747 
Q 353 2572 751 3078 
Q 1150 3584 1784 3584 
Q 2172 3584 2448 3432 
Q 2725 3281 2906 2969 
z
M 947 1747 
Q 947 1113 1208 752 
Q 1469 391 1925 391 
Q 2381 391 2643 752 
Q 2906 1113 2906 1747 
Q 2906 2381 2643 2742 
Q 2381 3103 1925 3103 
Q 1469 3103 1208 2742 
Q 947 2381 947 1747 
z
" transform="scale(0.015625)"/>
       <path id="DejaVuSans-65" d="M 3597 1894 
L 3597 1613 
L 953 1613 
Q 991 1019 1311 708 
Q 1631 397 2203 397 
Q 2534 397 2845 478 
Q 3156 559 3463 722 
L 3463 178 
Q 3153 47 2828 -22 
Q 2503 -91 2169 -91 
Q 1331 -91 842 396 
Q 353 884 353 1716 
Q 353 2575 817 3079 
Q 1281 3584 2069 3584 
Q 2775 3584 3186 3129 
Q 3597 2675 3597 1894 
z
M 3022 2063 
Q 3016 2534 2758 2815 
Q 2500 3097 2075 3097 
Q 1594 3097 1305 2825 
Q 1016 2553 972 2059 
L 3022 2063 
z
" transform="scale(0.015625)"/>
       <path id="DejaVuSans-20" transform="scale(0.015625)"/>
       <path id="DejaVuSans-49" d="M 628 4666 
L 1259 4666 
L 1259 0 
L 628 0 
L 628 4666 
z
" transform="scale(0.015625)"/>
       <path id="DejaVuSans-6e" d="M 3513 2113 
L 3513 0 
L 2938 0 
L 2938 2094 
Q 2938 2591 2744 2837 
Q 2550 3084 2163 3084 
Q 1697 3084 1428 2787 
Q 1159 2491 1159 1978 
L 1159 0 
L 581 0 
L 581 3500 
L 1159 3500 
L 1159 2956 
Q 1366 3272 1645 3428 
Q 1925 3584 2291 3584 
Q 2894 3584 3203 3211 
Q 3513 2838 3513 2113 
z
" transform="scale(0.015625)"/>
       <path id="DejaVuSans-73" d="M 2834 3397 
L 2834 2853 
Q 2591 2978 2328 3040 
Q 2066 3103 1784 3103 
Q 1356 3103 1142 2972 
Q 928 2841 928 2578 
Q 928 2378 1081 2264 
Q 1234 2150 1697 2047 
L 1894 2003 
Q 2506 1872 2764 1633 
Q 3022 1394 3022 966 
Q 3022 478 2636 193 
Q 2250 -91 1575 -91 
Q 1294 -91 989 -36 
Q 684 19 347 128 
L 347 722 
Q 666 556 975 473 
Q 1284 391 1588 391 
Q 1994 391 2212 530 
Q 2431 669 2431 922 
Q 2431 1156 2273 1281 
Q 2116 1406 1581 1522 
L 1381 1569 
Q 847 1681 609 1914 
Q 372 2147 372 2553 
Q 372 3047 722 3315 
Q 1072 3584 1716 3584 
Q 2034 3584 2315 3537 
Q 2597 3491 2834 3397 
z
" transform="scale(0.015625)"/>
       <path id="DejaVuSans-74" d="M 1172 4494 
L 1172 3500 
L 2356 3500 
L 2356 3053 
L 1172 3053 
L 1172 1153 
Q 1172 725 1289 603 
Q 1406 481 1766 481 
L 2356 481 
L 2356 0 
L 1766 0 
Q 1100 0 847 248 
Q 594 497 594 1153 
L 594 3053 
L 172 3053 
L 172 3500 
L 594 3500 
L 594 4494 
L 1172 4494 
z
" transform="scale(0.015625)"/>
       <path id="DejaVuSans-6c" d="M 603 4863 
L 1178 4863 
L 1178 0 
L 603 0 
L 603 4863 
z
" transform="scale(0.015625)"/>
       <path id="DejaVuSans-28" d="M 1984 4856 
Q 1566 4138 1362 3434 
Q 1159 2731 1159 2009 
Q 1159 1288 1364 580 
Q 1569 -128 1984 -844 
L 1484 -844 
Q 1016 -109 783 600 
Q 550 1309 550 2009 
Q 550 2706 781 3412 
Q 1013 4119 1484 4856 
L 1984 4856 
z
" transform="scale(0.015625)"/>
       <path id="DejaVuSans-4d" d="M 628 4666 
L 1569 4666 
L 2759 1491 
L 3956 4666 
L 4897 4666 
L 4897 0 
L 4281 0 
L 4281 4097 
L 3078 897 
L 2444 897 
L 1241 4097 
L 1241 0 
L 628 0 
L 628 4666 
z
" transform="scale(0.015625)"/>
       <path id="DejaVuSans-57" d="M 213 4666 
L 850 4666 
L 1831 722 
L 2809 4666 
L 3519 4666 
L 4500 722 
L 5478 4666 
L 6119 4666 
L 4947 0 
L 4153 0 
L 3169 4050 
L 2175 0 
L 1381 0 
L 213 4666 
z
" transform="scale(0.015625)"/>
       <path id="DejaVuSans-29" d="M 513 4856 
L 1013 4856 
Q 1481 4119 1714 3412 
Q 1947 2706 1947 2009 
Q 1947 1309 1714 600 
Q 1481 -109 1013 -844 
L 513 -844 
Q 928 -128 1133 580 
Q 1338 1288 1338 2009 
Q 1338 2731 1133 3434 
Q 928 4138 513 4856 
z
" transform="scale(0.015625)"/>
      </defs>
      <use xlink:href="#DejaVuSans-43"/>
      <use xlink:href="#DejaVuSans-61" x="69.824219"/>
      <use xlink:href="#DejaVuSans-70" x="131.103516"/>
      <use xlink:href="#DejaVuSans-61" x="194.580078"/>
      <use xlink:href="#DejaVuSans-63" x="255.859375"/>
      <use xlink:href="#DejaVuSans-69" x="310.839844"/>
      <use xlink:href="#DejaVuSans-64" x="338.623047"/>
      <use xlink:href="#DejaVuSans-61" x="402.099609"/>
      <use xlink:href="#DejaVuSans-64" x="463.378906"/>
      <use xlink:href="#DejaVuSans-65" x="526.855469"/>
      <use xlink:href="#DejaVuSans-20" x="588.378906"/>
      <use xlink:href="#DejaVuSans-49" x="620.166016"/>
      <use xlink:href="#DejaVuSans-6e" x="649.658203"/>
      <use xlink:href="#DejaVuSans-73" x="713.037109"/>
      <use xlink:href="#DejaVuSans-74" x="765.136719"/>
      <use xlink:href="#DejaVuSans-61" x="804.345703"/>
      <use xlink:href="#DejaVuSans-6c" x="865.625"/>
      <use xlink:href="#DejaVuSans-61" x="893.408203"/>
      <use xlink:href="#DejaVuSans-64" x="954.6875"/>
      <use xlink:href="#DejaVuSans-61" x="1018.164062"/>
      <use xlink:href="#DejaVuSans-20" x="1079.443359"/>
      <use xlink:href="#DejaVuSans-28" x="1111.230469"/>
      <use xlink:href="#DejaVuSans-4d" x="1150.244141"/>
      <use xlink:href="#DejaVuSans-57" x="1236.523438"/>
      <use xlink:href="#DejaVuSans-29" x="1335.400391"/>
     </g>
    </g>
   </g>
   <g id="line2d_13">
    <path d="M 92.290909 442.996364 
L 93.32494 442.996364 
L 93.437902 442.56128 
L 94.576205 442.56128 
L 94.689167 442.271224 
L 98.538544 442.271224 
L 98.651505 441.148707 
L 100.415441 441.148707 
L 100.528402 440.713624 
L 102.91797 440.713624 
L 103.030932 440.27854 
L 107.923029 440.27854 
L 108.035991 439.843456 
L 112.302456 439.843456 
L 112.415417 438.944282 
L 115.222074 438.944282 
L 115.335035 438.509198 
L 115.847706 438.509198 
L 115.960668 438.059612 
L 121.061309 438.059612 
L 121.174271 437.668036 
L 142.958443 437.668036 
L 143.071404 436.884885 
L 149.423311 436.884885 
L 149.536272 436.49331 
L 154.011281 436.49331 
L 154.124243 436.203254 
L 157.556532 436.203254 
L 157.669493 434.288885 
L 159.01634 434.288885 
L 159.129302 432.374516 
L 160.476149 432.374516 
L 160.589111 431.272303 
L 164.021399 431.272303 
L 164.134361 430.63418 
L 177.785312 430.63418 
L 177.898273 429.459454 
L 182.373283 429.459454 
L 182.486244 428.45702 
L 207.190034 428.45702 
L 207.302995 427.282294 
L 225.959005 427.282294 
L 226.071967 426.180081 
L 231.798241 426.180081 
L 231.911202 424.807537 
L 237.637476 424.807537 
L 237.750438 423.419677 
L 241.599815 423.419677 
L 241.712776 422.687731 
L 242.016903 422.687731 
L 242.129864 421.962591 
L 245.145065 421.962591 
L 245.258026 421.299871 
L 250.9843 421.299871 
L 251.097262 420.574731 
L 253.48683 420.574731 
L 253.599791 419.849592 
L 257.03208 419.849592 
L 257.145041 417.151346 
L 261.828595 417.151346 
L 261.941556 416.426206 
L 263.705492 416.426206 
L 263.818454 415.763487 
L 280.180478 415.763487 
L 280.29344 415.262531 
L 283.934272 415.262531 
L 284.047234 414.761576 
L 291.858949 414.761576 
L 291.971911 414.26062 
L 293.110214 414.26062 
L 293.223175 413.869044 
L 293.944391 413.869044 
L 294.057352 413.368089 
L 303.120332 413.368089 
L 303.233294 416.066334 
L 339.615554 416.066334 
L 339.728516 413.368089 
L 343.786437 413.368089 
L 343.899398 413.056047 
L 347.957319 413.056047 
L 348.070281 412.744005 
L 353.796555 412.744005 
L 353.909516 411.830328 
L 358.59307 411.830328 
L 358.706031 411.206244 
L 361.929776 411.206244 
L 362.042737 407.061925 
L 366.100659 407.061925 
L 366.21362 404.110316 
L 370.480085 404.110316 
L 370.593047 399.165385 
L 372.148438 399.165385 
L 372.2614 398.71677 
L 372.774071 398.71677 
L 372.887032 398.404727 
L 373.608247 398.404727 
L 373.721208 396.825953 
L 374.233879 396.825953 
L 374.346841 396.513911 
L 377.153497 396.513911 
L 377.266459 396.217909 
L 377.77913 396.217909 
L 377.892091 406.435317 
L 384.243998 406.435317 
L 384.356959 394.625806 
L 386.120895 394.625806 
L 386.233856 394.313764 
L 388.831968 394.313764 
L 388.94493 393.627941 
L 396.756645 393.627941 
L 396.869607 392.177662 
L 406.975307 392.148656 
L 407.088269 390.625863 
L 408.64366 390.625863 
L 408.756622 390.234287 
L 415.317072 390.234287 
L 415.430034 389.842712 
L 423.867382 389.842712 
L 423.980343 389.530669 
L 425.952823 389.530669 
L 426.065784 389.139094 
L 426.995544 389.139094 
L 427.108505 388.827052 
L 430.123706 388.827052 
L 430.236667 388.51501 
L 433.043323 388.51501 
L 433.156285 386.276503 
L 433.251867 386.276503 
L 433.364829 383.92705 
L 433.460412 383.92705 
L 433.573373 383.535475 
L 435.962941 383.535475 
L 436.075902 382.965515 
L 437.005662 382.965515 
L 437.118623 382.051839 
L 437.631294 382.051839 
L 437.744255 381.02069 
L 439.925279 381.02069 
L 440.038241 380.274521 
L 440.550912 380.274521 
L 440.663873 379.528352 
L 441.176544 379.528352 
L 441.289506 378.810522 
L 441.802177 378.810522 
L 441.915138 378.064353 
L 442.219265 378.064353 
L 442.332226 378.782183 
L 442.636353 378.782183 
L 442.749315 378.064353 
L 444.304706 378.064353 
L 444.417668 377.779373 
L 445.973059 377.779373 
L 446.086021 376.287035 
L 447.432868 376.287035 
L 447.545829 375.717249 
L 447.641412 375.717249 
L 447.754374 374.999404 
L 447.849956 374.999404 
L 447.962918 374.281574 
L 448.0585 374.281574 
L 448.171462 372.789236 
L 448.892677 372.789236 
L 449.005638 372.071406 
L 449.309765 372.071406 
L 449.422727 371.325237 
L 449.518309 371.325237 
L 449.631271 370.579068 
L 453.480648 370.579068 
L 453.593609 369.832899 
L 455.357545 369.832899 
L 455.470506 369.115069 
L 456.400266 369.115069 
L 456.513227 367.804596 
L 457.860074 367.804596 
L 457.973036 365.943931 
L 460.362604 365.943931 
L 460.475565 364.801111 
L 462.239501 364.801111 
L 462.352462 361.311883 
L 464.116398 361.311883 
L 464.22936 360.740473 
L 465.159119 360.740473 
L 465.27208 360.169062 
L 469.121457 360.169062 
L 469.234419 359.026242 
L 472.458163 359.026242 
L 472.571125 358.59841 
L 473.917972 358.59841 
L 474.030934 355.54267 
L 475.377781 355.54267 
L 475.490742 354.817386 
L 476.83759 354.817386 
L 476.950551 354.092101 
L 479.340119 354.092101 
L 479.453081 352.810054 
L 479.757208 352.810054 
L 479.870169 349.972756 
L 485.804987 349.972756 
L 485.917949 349.044577 
L 486.013532 349.044577 
L 486.126493 348.319292 
L 486.847708 348.319292 
L 486.960669 347.176471 
L 487.264796 347.176471 
L 487.377758 346.451187 
L 487.47334 346.451187 
L 487.586302 345.737649 
L 488.098973 345.737649 
L 488.211934 344.30193 
L 488.307517 344.30193 
L 488.420478 343.576645 
L 488.516061 343.576645 
L 488.629022 342.140927 
L 488.933149 342.140927 
L 489.046111 341.569516 
L 490.184414 341.569516 
L 490.297375 340.844232 
L 491.644223 340.844232 
L 491.757184 339.474814 
L 491.852767 339.474814 
L 491.965729 340.502697 
L 492.478399 340.502697 
L 492.591361 340.038607 
L 492.686944 340.038607 
L 492.799905 330.909155 
L 495.815106 330.909155 
L 495.928067 330.337745 
L 498.109091 330.337745 
L 498.109091 330.337745 
" clip-path="url(#p64fd5a0a94)" style="fill: none; stroke: #1f77b4; stroke-width: 1.5; stroke-linecap: square"/>
   </g>
   <g id="line2d_14">
    <path d="M 92.290909 287.731455 
L 94.159117 287.731455 
L 94.272078 287.332628 
L 95.82747 287.332628 
L 95.940431 287.149893 
L 96.870191 287.149893 
L 96.983152 286.896094 
L 97.078735 286.896094 
L 97.191696 285.271781 
L 98.538544 285.271781 
L 98.651505 285.090496 
L 98.955632 285.090496 
L 99.068593 284.432069 
L 100.415441 284.432069 
L 100.528402 284.001336 
L 100.623985 284.001336 
L 100.736946 283.566252 
L 102.083794 283.566252 
L 102.196755 283.34871 
L 104.377779 283.34871 
L 104.490741 283.131168 
L 106.046132 283.131168 
L 106.159094 282.949883 
L 107.505941 282.949883 
L 107.618902 282.543805 
L 108.548662 282.543805 
L 108.661623 282.239246 
L 112.093912 282.239246 
L 112.206873 281.934688 
L 115.847706 281.934688 
L 115.960668 281.782408 
L 119.184412 281.782408 
L 119.297374 281.630129 
L 119.6015 281.630129 
L 119.714462 281.195045 
L 121.686942 281.195045 
L 121.799903 280.764312 
L 122.312574 280.764312 
L 122.425535 280.642488 
L 130.028707 280.642488 
L 130.141668 278.951462 
L 130.237251 278.951462 
L 130.350212 280.213206 
L 131.905604 280.213206 
L 132.018565 279.782473 
L 132.114148 279.782473 
L 132.227109 279.35174 
L 141.081545 279.35174 
L 141.194507 278.490273 
L 143.584075 278.490273 
L 143.697036 277.759333 
L 144.209707 277.759333 
L 144.322669 277.058847 
L 145.460972 277.058847 
L 145.573934 276.628114 
L 147.129325 276.628114 
L 147.242287 276.197381 
L 147.963502 276.197381 
L 148.076463 275.766648 
L 148.589134 275.766648 
L 148.702095 275.335915 
L 148.797678 275.335915 
L 148.91064 274.544063 
L 149.214766 274.544063 
L 149.327728 274.152487 
L 149.840399 274.152487 
L 149.95336 272.172855 
L 150.257487 272.172855 
L 150.370448 271.742122 
L 150.883119 271.742122 
L 150.996081 271.346196 
L 151.300208 271.346196 
L 151.413169 269.91477 
L 152.760017 269.91477 
L 152.872978 269.566703 
L 153.177105 269.566703 
L 153.290066 268.465941 
L 155.054002 268.465941 
L 155.166963 266.046149 
L 155.262546 266.046149 
L 155.375508 263.574873 
L 157.556532 263.574873 
L 157.669493 263.444348 
L 158.182164 263.444348 
L 158.295125 262.997661 
L 159.641973 262.997661 
L 159.754934 262.801874 
L 160.476149 262.801874 
L 160.589111 262.410298 
L 161.310326 262.410298 
L 161.423287 262.21451 
L 161.51887 262.21451 
L 161.631831 262.018723 
L 161.727414 262.018723 
L 161.840375 261.627147 
L 161.935958 261.627147 
L 162.04892 260.938264 
L 163.395767 260.938264 
L 163.508728 260.546689 
L 164.021399 260.546689 
L 164.134361 259.437225 
L 164.229944 259.437225 
L 164.342905 258.810704 
L 164.438488 258.810704 
L 164.551449 258.614916 
L 164.647032 258.614916 
L 164.759993 258.419129 
L 166.106841 258.419129 
L 166.219802 258.262499 
L 169.860635 258.262499 
L 169.973596 257.573616 
L 173.197341 257.573616 
L 173.310302 256.993504 
L 175.908415 256.993504 
L 176.021376 256.340878 
L 178.619488 256.340878 
L 178.73245 256.123336 
L 179.453665 256.014565 
L 179.566626 255.760766 
L 180.287841 255.760766 
L 180.400803 255.325682 
L 180.913474 255.325682 
L 181.026435 254.990668 
L 182.164738 254.990668 
L 182.2777 254.700612 
L 182.373283 254.700612 
L 182.486244 254.410556 
L 183.207459 254.410556 
L 183.320421 254.1205 
L 183.624547 254.1205 
L 183.737509 253.39536 
L 186.335621 253.39536 
L 186.448582 253.03279 
L 186.544165 253.03279 
L 186.657127 252.67022 
L 195.303018 252.67022 
L 195.41598 252.438176 
L 199.265357 252.438176 
L 199.378318 252.293148 
L 199.682445 252.293148 
L 199.795407 251.866765 
L 203.853328 251.779749 
L 203.966289 251.402676 
L 217.200152 251.402676 
L 217.313113 251.228642 
L 221.371034 251.228642 
L 221.483996 250.809874 
L 223.039387 250.809874 
L 223.152349 250.183353 
L 224.290652 250.183353 
L 224.403614 249.718901 
L 227.418814 249.718901 
L 227.531775 249.444798 
L 229.087167 249.444798 
L 229.200128 249.209853 
L 234.092226 249.209853 
L 234.205188 249.064825 
L 234.30077 249.064825 
L 234.413732 248.919797 
L 234.509314 248.919797 
L 234.622276 248.50828 
L 236.386212 248.50828 
L 236.499173 248.257019 
L 239.097285 248.257019 
L 239.210247 248.111991 
L 241.808359 248.111991 
L 241.92132 247.910983 
L 257.03208 247.910983 
L 257.145041 246.640973 
L 257.866257 246.640973 
L 257.979218 245.791254 
L 259.117521 245.791254 
L 259.230483 244.660036 
L 259.326065 244.660036 
L 259.439027 244.00741 
L 262.454227 244.00741 
L 262.567189 243.623666 
L 263.288404 243.623666 
L 263.401365 242.831813 
L 263.496948 242.831813 
L 263.609909 242.681057 
L 264.12258 242.681057 
L 264.235542 242.114578 
L 264.748213 242.114578 
L 264.861174 241.870931 
L 266.416566 241.870931 
L 266.529527 241.415615 
L 266.833654 241.415615 
L 266.946615 241.23288 
L 268.293463 241.23288 
L 268.406424 240.928321 
L 269.753272 240.928321 
L 269.866233 240.623763 
L 272.881434 240.623763 
L 272.994395 239.892822 
L 273.507066 239.892822 
L 273.620028 239.588263 
L 274.132699 239.588263 
L 274.24566 239.344616 
L 277.26086 239.344616 
L 277.373822 239.040057 
L 279.971934 239.040057 
L 280.084895 238.79641 
L 281.014655 238.79641 
L 281.127616 238.487501 
L 281.431743 238.487501 
L 281.544704 238.243854 
L 282.474464 238.243854 
L 282.587425 238.000207 
L 285.394081 238.000207 
L 285.507043 237.75656 
L 285.602625 237.75656 
L 285.715587 237.602105 
L 287.062434 237.602105 
L 287.175396 234.459059 
L 288.939332 234.459059 
L 289.052293 231.968204 
L 289.773508 231.968204 
L 289.886469 231.666691 
L 291.650405 231.666691 
L 291.763367 231.264673 
L 293.110214 231.264673 
L 293.223175 231.021026 
L 293.735846 231.021026 
L 293.848808 230.838291 
L 294.361479 230.838291 
L 294.47444 230.533732 
L 295.404199 230.533732 
L 295.517161 230.290085 
L 297.489641 230.290085 
L 297.602602 229.89851 
L 297.698185 229.89851 
L 297.811146 229.487356 
L 299.157994 229.487356 
L 299.270955 229.085338 
L 299.575082 229.085338 
L 299.688043 228.841691 
L 301.660523 228.841691 
L 301.773485 228.389421 
L 302.911788 228.389421 
L 303.024749 227.902127 
L 303.53742 227.902127 
L 303.650382 227.550362 
L 304.997229 227.550362 
L 305.110191 227.395907 
L 305.622862 227.395907 
L 305.735823 227.091349 
L 306.03995 227.091349 
L 306.152911 226.789835 
L 306.248494 226.789835 
L 306.361455 226.332997 
L 307.082671 226.332997 
L 307.195632 225.880728 
L 308.125391 225.880728 
L 308.238353 226.785267 
L 308.751024 226.785267 
L 308.863985 226.480708 
L 309.168112 226.480708 
L 309.281073 226.02387 
L 309.376656 226.02387 
L 309.489617 225.147176 
L 310.210832 225.147176 
L 310.323794 224.903529 
L 310.419377 224.903529 
L 310.532338 224.749075 
L 311.879185 224.749075 
L 311.992147 224.292236 
L 312.296274 224.292236 
L 312.409235 223.940471 
L 312.713362 223.940471 
L 312.826323 223.635912 
L 313.756083 223.635912 
L 313.869044 223.481458 
L 315.007347 223.481458 
L 315.120309 223.174723 
L 315.215892 223.174723 
L 315.328853 222.833908 
L 316.467156 222.833908 
L 316.580118 222.22479 
L 317.509877 222.22479 
L 317.622838 221.354623 
L 317.926965 221.354623 
L 318.039927 221.050064 
L 320.846583 221.050064 
L 320.959544 218.238987 
L 325.017465 218.238987 
L 325.130427 217.930077 
L 325.434554 217.930077 
L 325.547515 217.062085 
L 326.060186 217.062085 
L 326.173148 216.90763 
L 326.685819 216.90763 
L 326.79878 216.481248 
L 327.728539 216.481248 
L 327.841501 215.741605 
L 327.937083 215.741605 
L 328.050045 215.306521 
L 328.145627 215.306521 
L 328.258589 215.062874 
L 328.979804 215.062874 
L 329.092765 214.90842 
L 331.273789 214.90842 
L 331.386751 214.753965 
L 332.31651 214.753965 
L 332.429471 214.600235 
L 333.150686 214.600235 
L 333.263648 212.270361 
L 333.567775 212.270361 
L 333.680736 212.115906 
L 333.776319 212.115906 
L 333.88928 210.958583 
L 333.984863 210.958583 
L 334.097824 210.730164 
L 334.193407 210.730164 
L 334.306368 210.393699 
L 335.653216 210.393699 
L 335.766177 209.266832 
L 336.904481 209.266832 
L 337.017442 209.044939 
L 337.947201 209.044939 
L 338.060163 208.557645 
L 338.36429 208.557645 
L 338.477251 208.37491 
L 341.075363 208.37491 
L 341.188325 208.153017 
L 343.786437 208.153017 
L 343.899398 207.604812 
L 344.203525 207.604812 
L 344.316487 206.886923 
L 345.45479 206.886923 
L 345.567751 206.733193 
L 345.871878 206.733193 
L 345.98484 204.672854 
L 346.706055 204.672854 
L 346.819016 204.522097 
L 347.331687 204.522097 
L 347.444648 204.217538 
L 347.957319 204.217538 
L 348.070281 204.01653 
L 348.374408 204.01653 
L 348.487369 203.868601 
L 348.791496 203.868601 
L 348.904457 203.484857 
L 349.625672 203.484857 
L 349.738634 203.302122 
L 350.668393 203.302122 
L 350.781355 203.000609 
L 351.50257 203.000609 
L 351.615531 202.849852 
L 352.336746 202.849852 
L 352.449708 210.097915 
L 353.796555 210.097915 
L 353.909516 208.707822 
L 354.005099 208.707822 
L 354.118061 207.794146 
L 354.213643 207.794146 
L 354.326605 207.550499 
L 355.256364 207.550499 
L 355.369325 207.306852 
L 357.133261 207.306852 
L 357.246222 207.063205 
L 357.341805 207.063205 
L 357.454767 206.454087 
L 358.175982 206.454087 
L 358.288943 206.196663 
L 358.384526 206.196663 
L 358.497487 205.40481 
L 358.59307 205.40481 
L 358.706031 201.023733 
L 358.801614 201.023733 
L 358.914575 200.870003 
L 359.635791 200.870003 
L 359.748752 199.698177 
L 359.844335 199.698177 
L 359.957296 199.45453 
L 360.469967 199.45453 
L 360.582928 198.952008 
L 361.304144 198.952008 
L 361.417105 198.295757 
L 361.929776 198.295757 
L 362.042737 198.113022 
L 362.763952 198.113022 
L 362.876914 197.654733 
L 362.972497 197.654733 
L 363.085458 197.045616 
L 363.389585 197.045616 
L 363.502546 196.49741 
L 364.432305 196.49741 
L 364.545267 196.239985 
L 365.475026 196.239985 
L 365.587988 196.05725 
L 366.100659 196.05725 
L 366.21362 194.108074 
L 367.769012 194.108074 
L 367.881973 193.62078 
L 368.394644 193.62078 
L 368.507605 192.768016 
L 369.020276 192.768016 
L 369.133238 192.585281 
L 370.062997 192.585281 
L 370.175958 191.915252 
L 370.480085 191.915252 
L 370.593047 191.41273 
L 370.688629 191.41273 
L 370.801591 190.803612 
L 371.314262 190.803612 
L 371.427223 190.459461 
L 371.522806 190.459461 
L 371.635767 189.850343 
L 373.399703 189.850343 
L 373.512664 189.545785 
L 373.608247 189.545785 
L 373.721208 189.180314 
L 374.233879 189.180314 
L 374.346841 188.936667 
L 374.442424 188.936667 
L 374.555385 187.864621 
L 375.485144 187.864621 
L 375.598106 187.462603 
L 376.110777 187.462603 
L 376.223738 187.158044 
L 376.319321 187.158044 
L 376.432282 186.183456 
L 377.570585 186.183456 
L 377.683547 185.269055 
L 377.77913 185.269055 
L 377.892091 185.063115 
L 377.987674 185.063115 
L 378.100635 184.332175 
L 378.613306 184.332175 
L 378.726268 184.131166 
L 379.447483 184.131166 
L 379.786367 183.724217 
L 380.698747 183.724217 
L 380.811709 183.48057 
L 380.907292 183.48057 
L 381.237486 182.416138 
L 381.532924 182.416138 
L 381.645885 181.698249 
L 381.950012 181.698249 
L 382.062974 181.271867 
L 382.158556 181.271867 
L 382.271518 180.553979 
L 383.201277 180.553979 
L 383.314238 180.371243 
L 383.409821 180.371243 
L 383.522782 180.24942 
L 385.078174 180.24942 
L 385.191135 179.883949 
L 385.286718 179.883949 
L 385.39968 179.640302 
L 386.537983 179.640302 
L 386.650944 179.485848 
L 389.040512 179.485848 
L 389.153474 178.937642 
L 389.249057 178.937642 
L 389.362018 177.781842 
L 390.291777 177.781842 
L 390.404739 177.480328 
L 390.708866 177.480328 
L 390.821827 177.274389 
L 390.91741 177.274389 
L 391.030371 175.570455 
L 391.125954 175.570455 
L 391.238915 175.265897 
L 391.96013 175.265897 
L 392.073092 174.065065 
L 392.168674 174.065065 
L 392.281636 173.072204 
L 392.585763 172.971699 
L 392.698724 172.627983 
L 393.211395 172.627983 
L 393.324356 172.497458 
L 393.419939 172.497458 
L 393.532901 171.080172 
L 393.628483 171.080172 
L 393.741445 170.840876 
L 394.045572 170.840876 
L 394.158533 170.536317 
L 394.671204 170.536317 
L 394.784165 170.170847 
L 394.879748 170.170847 
L 394.992709 169.931551 
L 396.131013 169.931551 
L 396.243974 169.626992 
L 396.756645 169.626992 
L 396.869607 169.383345 
L 399.259175 169.383345 
L 399.372136 169.144049 
L 401.344616 169.144049 
L 401.457577 168.904753 
L 402.178792 168.904753 
L 402.291754 168.665456 
L 403.638601 168.636451 
L 403.751563 168.397155 
L 404.264234 168.397155 
L 404.377195 168.123052 
L 412.605999 168.123052 
L 412.71896 167.457374 
L 412.814543 167.457374 
L 412.927504 165.660477 
L 413.648719 165.660477 
L 413.761681 164.868624 
L 415.525617 164.868624 
L 415.638578 164.38133 
L 415.734161 164.38133 
L 415.847122 164.181946 
L 416.568337 164.181946 
L 416.681299 163.462607 
L 418.653779 163.462607 
L 418.76674 162.715017 
L 419.696499 162.715017 
L 419.809461 154.992713 
L 420.947764 154.992713 
L 421.060725 154.540444 
L 421.364852 154.540444 
L 421.477814 154.341059 
L 423.033205 154.341059 
L 423.146167 154.141675 
L 423.241749 154.141675 
L 423.354711 153.689405 
L 428.246808 153.689405 
L 428.35977 157.959028 
L 428.455352 157.959028 
L 428.568314 153.689405 
L 429.080985 153.689405 
L 429.193946 151.264537 
L 430.123706 151.264537 
L 430.236667 150.754039 
L 431.583514 150.754039 
L 431.696476 150.554655 
L 433.460412 150.554655 
L 433.573373 150.255578 
L 434.294588 150.255578 
L 434.407549 150.056194 
L 435.545853 150.056194 
L 435.658814 149.352663 
L 435.962941 149.352663 
L 436.075902 146.840082 
L 436.171485 146.840082 
L 436.284447 139.731754 
L 436.380029 139.731754 
L 436.492991 139.492458 
L 437.631294 139.492458 
L 437.744255 139.332928 
L 438.465471 139.332928 
L 438.578432 139.097982 
L 438.674015 139.097982 
L 438.786976 138.380094 
L 438.882559 138.380094 
L 438.99552 137.570838 
L 440.133824 137.570838 
L 440.246785 137.121251 
L 440.550912 137.121251 
L 440.663873 136.881955 
L 440.759456 136.881955 
L 440.872417 136.722424 
L 441.385088 136.722424 
L 441.49805 136.52304 
L 441.593632 136.52304 
L 441.706594 136.322031 
L 443.053441 136.322031 
L 443.166403 135.719005 
L 444.721794 135.719005 
L 444.834756 134.957608 
L 444.930339 134.957608 
L 445.0433 134.718312 
L 445.973059 134.718312 
L 446.086021 134.457261 
L 446.181603 134.457261 
L 446.294565 131.349312 
L 446.390147 131.349312 
L 446.503109 130.996894 
L 447.224324 130.996894 
L 447.337285 130.542261 
L 448.0585 130.542261 
L 448.171462 130.063668 
L 448.684133 130.063668 
L 448.797094 129.6649 
L 449.518309 129.6649 
L 449.631271 128.945561 
L 450.143942 128.945561 
L 450.256903 128.429261 
L 451.603751 128.429261 
L 451.716712 128.174012 
L 451.812295 128.174012 
L 451.925256 126.201632 
L 452.020839 126.201632 
L 452.1338 121.086554 
L 452.229383 121.086554 
L 452.342344 120.760241 
L 453.480648 120.760241 
L 453.593609 120.60071 
L 453.689192 120.60071 
L 453.802153 119.182336 
L 453.897736 119.182336 
L 454.010697 118.982952 
L 454.523368 118.982952 
L 454.63633 118.734954 
L 454.940457 118.734954 
L 455.053418 118.169345 
L 455.149001 118.169345 
L 455.261962 117.738612 
L 455.357545 117.738612 
L 455.470506 117.503667 
L 455.983177 117.503667 
L 456.096139 116.93813 
L 456.191721 116.93813 
L 456.304683 116.738746 
L 456.60881 116.738746 
L 456.721771 115.840544 
L 457.860074 115.840544 
L 457.973036 114.324306 
L 458.068619 114.324306 
L 458.18158 111.306332 
L 458.277163 111.306332 
L 458.390124 110.807291 
L 459.319883 110.807291 
L 459.432845 110.552041 
L 460.362604 110.552041 
L 460.475565 109.812399 
L 461.19678 109.812399 
L 461.309742 109.481735 
L 461.822413 109.481735 
L 461.935374 108.995891 
L 462.239501 108.995891 
L 462.352462 112.485119 
L 463.69931 112.485119 
L 463.812271 111.815308 
L 463.907854 111.815308 
L 464.020815 111.075665 
L 464.742031 111.075665 
L 464.854992 110.030767 
L 465.159119 110.030767 
L 465.27208 109.617438 
L 465.367663 109.617438 
L 465.480624 109.457907 
L 466.201839 109.457907 
L 466.314801 109.196857 
L 466.410384 109.196857 
L 466.523345 108.927105 
L 466.618928 108.927105 
L 466.731889 108.677874 
L 466.827472 108.677874 
L 466.940433 108.416824 
L 467.661648 108.416824 
L 467.77461 108.221036 
L 468.078737 108.221036 
L 468.191698 107.503148 
L 468.287281 107.503148 
L 468.400242 107.064467 
L 469.330001 107.064467 
L 469.442963 106.704798 
L 469.538546 106.704798 
L 469.651507 106.208802 
L 469.74709 106.208802 
L 469.860051 105.73021 
L 470.78981 105.73021 
L 470.902772 105.480979 
L 471.206899 105.480979 
L 471.31986 104.710881 
L 472.458163 104.710881 
L 472.571125 103.66958 
L 475.169237 103.66958 
L 475.282198 103.40853 
L 475.586325 103.40853 
L 475.699287 102.9952 
L 476.420502 102.9952 
L 476.533463 102.795816 
L 476.629046 102.795816 
L 476.742007 102.534765 
L 476.83759 102.534765 
L 476.950551 101.342635 
L 478.714487 101.342635 
L 478.827448 100.882201 
L 479.548664 100.882201 
L 479.661625 100.682816 
L 479.757208 100.682816 
L 479.870169 103.624476 
L 480.174296 103.624476 
L 480.287257 103.363426 
L 481.425561 103.363426 
L 481.538522 102.704999 
L 482.468281 102.704999 
L 482.581243 102.34533 
L 483.093914 102.34533 
L 483.206875 102.084279 
L 484.345179 102.084279 
L 484.45814 101.366391 
L 485.387899 101.366391 
L 485.500861 100.449814 
L 485.596443 100.449814 
L 485.709405 99.772534 
L 486.639164 99.772534 
L 486.752125 99.263486 
L 486.847708 99.263486 
L 486.960669 99.019839 
L 487.056252 99.019839 
L 487.169214 96.833397 
L 487.47334 96.833397 
L 487.586302 96.302595 
L 488.098973 96.302595 
L 488.211934 96.041544 
L 488.933149 96.041544 
L 489.046111 95.845757 
L 489.558782 95.845757 
L 489.671743 95.60211 
L 489.97587 95.60211 
L 490.088831 93.858873 
L 490.184414 93.858873 
L 490.297375 93.597823 
L 491.435679 93.597823 
L 491.54864 93.345475 
L 491.852767 93.345475 
L 491.965729 93.636981 
L 493.104032 93.636981 
L 493.216993 93.457146 
L 494.146752 93.457146 
L 494.259714 92.166397 
L 494.563841 92.166397 
L 494.676802 91.09174 
L 495.398017 91.09174 
L 495.510979 90.462319 
L 495.606561 90.462319 
L 495.719523 89.776336 
L 495.815106 89.776336 
L 495.928067 89.146915 
L 496.02365 89.146915 
L 496.136611 88.894566 
L 496.857826 88.894566 
L 496.970788 88.520394 
L 497.06637 88.520394 
L 497.179332 88.281098 
L 497.483459 88.281098 
L 497.59642 86.923636 
L 498.109091 86.923636 
L 498.109091 86.923636 
" clip-path="url(#p64fd5a0a94)" style="fill: none; stroke: #ff7f0e; stroke-width: 1.5; stroke-linecap: square"/>
   </g>
   <g id="line2d_15">
    <path d="M 72 327.901275 
L 518.4 327.901275 
" clip-path="url(#p64fd5a0a94)" style="fill: none; stroke-dasharray: 5.55,2.4; stroke-dashoffset: 0; stroke: #000000; stroke-width: 1.5"/>
   </g>
   <g id="patch_3">
    <path d="M 72 460.8 
L 72 69.12 
" style="fill: none; stroke: #000000; stroke-width: 0.8; stroke-linejoin: miter; stroke-linecap: square"/>
   </g>
   <g id="patch_4">
    <path d="M 518.4 460.8 
L 518.4 69.12 
" style="fill: none; stroke: #000000; stroke-width: 0.8; stroke-linejoin: miter; stroke-linecap: square"/>
   </g>
   <g id="patch_5">
    <path d="M 72 460.8 
L 518.4 460.8 
" style="fill: none; stroke: #000000; stroke-width: 0.8; stroke-linejoin: miter; stroke-linecap: square"/>
   </g>
   <g id="patch_6">
    <path d="M 72 69.12 
L 518.4 69.12 
" style="fill: none; stroke: #000000; stroke-width: 0.8; stroke-linejoin: miter; stroke-linecap: square"/>
   </g>
   <g id="legend_1">
    <g id="patch_7">
     <path d="M 79 106.47625 
L 140.620313 106.47625 
Q 142.620313 106.47625 142.620313 104.47625 
L 142.620313 76.12 
Q 142.620313 74.12 140.620313 74.12 
L 79 74.12 
Q 77 74.12 77 76.12 
L 77 104.47625 
Q 77 106.47625 79 106.47625 
z
" style="fill: #ffffff; opacity: 0.8; stroke: #cccccc; stroke-linejoin: miter"/>
    </g>
    <g id="line2d_16">
     <path d="M 81 82.218437 
L 91 82.218437 
L 101 82.218437 
" style="fill: none; stroke: #1f77b4; stroke-width: 1.5; stroke-linecap: square"/>
    </g>
    <g id="text_14">
     <!-- Solar -->
     <g transform="translate(109 85.718437)scale(0.1 -0.1)">
      <defs>
       <path id="DejaVuSans-53" d="M 3425 4513 
L 3425 3897 
Q 3066 4069 2747 4153 
Q 2428 4238 2131 4238 
Q 1616 4238 1336 4038 
Q 1056 3838 1056 3469 
Q 1056 3159 1242 3001 
Q 1428 2844 1947 2747 
L 2328 2669 
Q 3034 2534 3370 2195 
Q 3706 1856 3706 1288 
Q 3706 609 3251 259 
Q 2797 -91 1919 -91 
Q 1588 -91 1214 -16 
Q 841 59 441 206 
L 441 856 
Q 825 641 1194 531 
Q 1563 422 1919 422 
Q 2459 422 2753 634 
Q 3047 847 3047 1241 
Q 3047 1584 2836 1778 
Q 2625 1972 2144 2069 
L 1759 2144 
Q 1053 2284 737 2584 
Q 422 2884 422 3419 
Q 422 4038 858 4394 
Q 1294 4750 2059 4750 
Q 2388 4750 2728 4690 
Q 3069 4631 3425 4513 
z
" transform="scale(0.015625)"/>
       <path id="DejaVuSans-6f" d="M 1959 3097 
Q 1497 3097 1228 2736 
Q 959 2375 959 1747 
Q 959 1119 1226 758 
Q 1494 397 1959 397 
Q 2419 397 2687 759 
Q 2956 1122 2956 1747 
Q 2956 2369 2687 2733 
Q 2419 3097 1959 3097 
z
M 1959 3584 
Q 2709 3584 3137 3096 
Q 3566 2609 3566 1747 
Q 3566 888 3137 398 
Q 2709 -91 1959 -91 
Q 1206 -91 779 398 
Q 353 888 353 1747 
Q 353 2609 779 3096 
Q 1206 3584 1959 3584 
z
" transform="scale(0.015625)"/>
       <path id="DejaVuSans-72" d="M 2631 2963 
Q 2534 3019 2420 3045 
Q 2306 3072 2169 3072 
Q 1681 3072 1420 2755 
Q 1159 2438 1159 1844 
L 1159 0 
L 581 0 
L 581 3500 
L 1159 3500 
L 1159 2956 
Q 1341 3275 1631 3429 
Q 1922 3584 2338 3584 
Q 2397 3584 2469 3576 
Q 2541 3569 2628 3553 
L 2631 2963 
z
" transform="scale(0.015625)"/>
      </defs>
      <use xlink:href="#DejaVuSans-53"/>
      <use xlink:href="#DejaVuSans-6f" x="63.476562"/>
      <use xlink:href="#DejaVuSans-6c" x="124.658203"/>
      <use xlink:href="#DejaVuSans-61" x="152.441406"/>
      <use xlink:href="#DejaVuSans-72" x="213.720703"/>
     </g>
    </g>
    <g id="line2d_17">
     <path d="M 81 96.896563 
L 91 96.896563 
L 101 96.896563 
" style="fill: none; stroke: #ff7f0e; stroke-width: 1.5; stroke-linecap: square"/>
    </g>
    <g id="text_15">
     <!-- Eólica -->
     <g transform="translate(109 100.396563)scale(0.1 -0.1)">
      <defs>
       <path id="DejaVuSans-45" d="M 628 4666 
L 3578 4666 
L 3578 4134 
L 1259 4134 
L 1259 2753 
L 3481 2753 
L 3481 2222 
L 1259 2222 
L 1259 531 
L 3634 531 
L 3634 0 
L 628 0 
L 628 4666 
z
" transform="scale(0.015625)"/>
       <path id="DejaVuSans-f3" d="M 1959 3097 
Q 1497 3097 1228 2736 
Q 959 2375 959 1747 
Q 959 1119 1226 758 
Q 1494 397 1959 397 
Q 2419 397 2687 759 
Q 2956 1122 2956 1747 
Q 2956 2369 2687 2733 
Q 2419 3097 1959 3097 
z
M 1959 3584 
Q 2709 3584 3137 3096 
Q 3566 2609 3566 1747 
Q 3566 888 3137 398 
Q 2709 -91 1959 -91 
Q 1206 -91 779 398 
Q 353 888 353 1747 
Q 353 2609 779 3096 
Q 1206 3584 1959 3584 
z
M 2394 5119 
L 3016 5119 
L 1998 3944 
L 1519 3944 
L 2394 5119 
z
" transform="scale(0.015625)"/>
      </defs>
      <use xlink:href="#DejaVuSans-45"/>
      <use xlink:href="#DejaVuSans-f3" x="63.183594"/>
      <use xlink:href="#DejaVuSans-6c" x="124.365234"/>
      <use xlink:href="#DejaVuSans-69" x="152.148438"/>
      <use xlink:href="#DejaVuSans-63" x="179.931641"/>
      <use xlink:href="#DejaVuSans-61" x="234.912109"/>
     </g>
    </g>
   </g>
  </g>
 </g>
 <defs>
  <clipPath id="p64fd5a0a94">
   <rect x="72" y="69.12" width="446.4" height="391.68"/>
  </clipPath>
 </defs>
</svg>
